P1
# CREATOR: GIMP PNM Filter Version 1.1
77 14
0000000110000000000000000000000000000000000000000011000000000000000000
0000000000000011000000000000000000000000000000000000000001100000000000
0000000000000000000001100000000000000000000000000000000000000000110000
0000000000000000000000001110110000000111100000110000011000000111100000
0110000110000011000001111000001111111000000111111000011000001100000111
1110000011000011000001100001111110001110011100000011001100000110001100
0001110011100001100000110001100000110011000110000110000011000011000011
0001100000110000110000110000011000110000110000110011000011000001111111
1000001000110000011000011000011000000100011000011111111001100001100000
1111111100000110110000001100001100001100000011011000001111111100110000
1100000110000000000011011000000110000110000110000001101100000110000000
0011001110000011100011000000111000000011100111000011000000011100000011
1000110001111111000000111111000000011100000000111111000001100000001110
0000001111110000011101100000001111000000000100000000001111000000110000
0000100000000011110000000000000000000000000000000000000000000000000000
0000000000000000000000000000