P1
# CREATOR: GIMP PNM Filter Version 1.1
66 14
0000000011000000000000000000000000000000000110000000000000000000000000
0000110000000000000000000000000000000001100000000000000000000000000000
1100000000000000000000000000000000011000000000000000000000000011101100
0001111000110000011000011110000110011000001100011110000001111111000011
1111001100000110001111110001100110000011001111110000111001110000110011
0001100011000111001110011000110001100011001100001100001100011000011001
1000110001100001100110001100011001100001100011000011000111111110001000
1100011000011001100001000110011111111000110000110001111111100011011000
0110000110011000011011000111111110001100001100011000000000110110000110
0001100110000110110001100000000001100111000111000110000111000001110011
1001100000111000011100011000011111110000111111000001110000001111110001
1000001110000011111100000011101100000111100000001000000001111000011000
0001000000011110000000000000000000000000000000000000000000000000000000
00000000000000