P1
# CREATOR: GIMP PNM Filter Version 1.1
286 14
0000000000011000000000000000000000000001100000000000000000011111000000
0000000110000000000000100000000001000000011000000000111100000000000000
0000000000000000000000000000000000000000000000000000000000000000000000
0000000000000000000000000000000000000000000000000000000000000000000000
0000000000000000001000000000000000000000000000100000000000000000100000
0000000000000010000000000000000000000000000000001000000000000100000000
0000000000000000000000000000000000000000000000000000000000000000000000
0000000100000000000000000000000000000000000000000000000000000000000000
0000000000000000000000001000000000000000000000000000100000000000000000
1000000000000000000010000000000000000000000000000000001000000000000100
0000000000000000000000000000000000000000000000000000000000000000000000
0000000000000100000000000000000000000000000000000000000000000000000000
0000000000000000000001111000001001110000001111010000011110100000111100
0000111111100000111011000010111100000111100000011111100000001001111000
0001000001101100110001101111000000111100000110111100000011100110001100
1110000011110100011111111000110000110011100001110001111111000111000111
0111100011111110000011100000000100001100001000010000110000100001100001
0000100000001000000001000110000011000010000000100000000000100000001000
1000000001000000110011001000110000100001000010000010000010000100010100
0001010001000100000100000100000000010000010001000000100001000001000010
0000100001000001000100000001000000000100001100000100110000010001000000
1000100000010000001000000010000010000010000010000000100000000000100000
0010100000000001000000100010001000100000100010000001000011000001001000
0001000001000000000100000000000100000000010000010000100001000000000100
0000010001000001000001000100010001000001111100001000000100100000000001
0000001000111111110000001000000010000010000010000010000000100000000000
1000000011000000000001000000100010001000100000100010000001000010000001
0010000001000001000000000011110000000100000000010000010000100001000000
0001000000001110000000100010000010010010000100000100001000000100100000
0000010000001000100000000000001000000010000010000010000010000000100000
0000001000000010100000000001000000100010001000100000100010000001000010
0000010010000001000001000000000000000100000100000000010000010000010010
0000000100000000001010000000100010000010111010000100000100001000000100
1000000000010000001000100000000000001000000010000010000010000010000000
1000000000001000000010010000000001000000100010001000100000100010000001
0000100000010010000001000001000000000000000100000100000000010000010000
0100100000000100000000010001000000010100000010101010000110001100001010
0010000100000100001000011000011000010000001000000001000110000010000010
0000001000000000001000000010001000000001000000100010001000100000100001
0000100000110000100001000101000001000000000100000100000100001000011000
1100000011000000010000010000100000100000011100000001101110000011110110
0110011100000011110000000111101100000111100000011111100000111010000111
0001110001111111000000001000000110011110001111111001110011001101110001
1100001111000000101111000000111001000011111100000101111000000011110000
0011110110000011000000011111110001110001110000001000000001000100000000
0000000000000000000000000000000000000000000000000000000000000000000010
0000000000000000000000000000001000000000000000000000000000000000000000
0000000000000000000000100000000000000001000000000000000000000000000000
0000000000000000000000000000000000000000000000000000001000000000000000
0000000000000000000000000000000000000000000000000000000000000000000000
0001000000000000000000000000000000001000000000000000000000000000000000
0000000000000000000000000000100000000000000001000000000000000000000000
0000000000000000000000000000000000000000000000000000000000010000000000
0000000000000000000000000000000000000000000000000000000000000000000000
0000011111000000000000000000000000000011110000000000000000000000000000
0000000000000000000000000000000001110000000000000011100000000000000000
0000000000000000000000000000000000000000000000000000000000000011111000
00000000000000